<svg width="21" height="21" viewBox="0 0 21 21" fill="none" xmlns="http://www.w3.org/2000/svg">
<path d="M8.20322 2.95313C8.20322 2.49885 8.33793 2.05477 8.59032 1.67705C8.8427 1.29933 9.20142 1.00494 9.62112 0.83109C10.0408 0.657245 10.5026 0.611759 10.9482 0.700385C11.3937 0.78901 11.803 1.00777 12.1242 1.32899C12.4455 1.65021 12.6642 2.05948 12.7528 2.50503C12.8415 2.95058 12.796 3.4124 12.6221 3.8321C12.4483 4.2518 12.1539 4.61052 11.7762 4.86291C11.3985 5.11529 10.9544 5.25 10.5001 5.25C9.89093 5.25 9.30671 5.00801 8.87596 4.57726C8.44522 4.14651 8.20322 3.5623 8.20322 2.95313ZM17.6713 11.5484L13.9594 7.34016C13.7438 7.09575 13.4787 6.90001 13.1817 6.76593C12.8847 6.63185 12.5626 6.5625 12.2367 6.5625H8.7635C8.43763 6.5625 8.11548 6.63185 7.81847 6.76593C7.52146 6.90001 7.25638 7.09575 7.04084 7.34016L3.32893 11.5484C3.0879 11.795 2.95361 12.1265 2.95509 12.4714C2.95657 12.8162 3.0937 13.1466 3.33684 13.3912C3.57997 13.6357 3.90958 13.7747 4.2544 13.7782C4.59922 13.7816 4.93156 13.6493 5.17955 13.4096L7.30088 11.7059L5.68487 17.8484C5.54427 18.164 5.53381 18.5223 5.65574 18.8456C5.77768 19.1689 6.02219 19.4311 6.3362 19.5752C6.65022 19.7194 7.00841 19.7339 7.33306 19.6156C7.65771 19.4974 7.92263 19.2558 8.07033 18.9435L10.5001 14.7656L12.9266 18.9492C13.0743 19.2616 13.3392 19.5031 13.6639 19.6214C13.9885 19.7397 14.3467 19.7251 14.6607 19.581C14.9747 19.4368 15.2192 19.1746 15.3412 18.8514C15.4631 18.5281 15.4526 18.1697 15.3121 17.8541L13.6993 11.7059L15.8239 13.4096C16.0719 13.6493 16.4043 13.7816 16.7491 13.7782C17.0939 13.7747 17.4235 13.6357 17.6666 13.3912C17.9098 13.1466 18.0469 12.8162 18.0484 12.4714C18.0499 12.1265 17.9156 11.795 17.6746 11.5484H17.6713Z" fill="black"/>
</svg>
