<svg width="50" height="50" viewBox="0 0 50 50" fill="none" xmlns="http://www.w3.org/2000/svg">
<rect width="50" height="50" rx="25" fill="#F8F8F8" fill-opacity="0.8"/>
<path d="M21.2812 12.7813C21.2812 12.0458 21.4993 11.3268 21.9079 10.7152C22.3165 10.1037 22.8973 9.62704 23.5768 9.34557C24.2563 9.06411 25.0041 8.99047 25.7254 9.13396C26.4468 9.27745 27.1094 9.63162 27.6295 10.1517C28.1496 10.6718 28.5037 11.3344 28.6472 12.0558C28.7907 12.7771 28.7171 13.5248 28.4356 14.2044C28.1541 14.8839 27.6775 15.4647 27.066 15.8733C26.4544 16.2819 25.7354 16.5 24.9999 16.5C24.0137 16.5 23.0678 16.1082 22.3704 15.4108C21.673 14.7134 21.2812 13.7675 21.2812 12.7813ZM36.6104 26.6973L30.6006 19.8841C30.2517 19.4884 29.8225 19.1714 29.3416 18.9544C28.8607 18.7373 28.3392 18.625 27.8116 18.625H22.1883C21.6607 18.625 21.1391 18.7373 20.6582 18.9544C20.1774 19.1714 19.7482 19.4884 19.3992 19.8841L13.3895 26.6973C12.9992 27.0966 12.7818 27.6334 12.7842 28.1918C12.7866 28.7501 13.0086 29.285 13.4023 29.6809C13.7959 30.0768 14.3296 30.3019 14.8878 30.3075C15.4461 30.3131 15.9842 30.0988 16.3857 29.7109L19.8202 26.9523L17.2038 36.8973C16.9762 37.4084 16.9593 37.9885 17.1567 38.5119C17.3541 39.0354 17.75 39.4598 18.2584 39.6932C18.7668 39.9266 19.3467 39.9501 19.8723 39.7586C20.398 39.5672 20.8269 39.1761 21.066 38.6704L24.9999 31.9063L28.9285 38.6797C29.1677 39.1854 29.5966 39.5765 30.1222 39.7679C30.6478 39.9594 31.2278 39.9359 31.7362 39.7025C32.2446 39.4691 32.6404 39.0447 32.8379 38.5212C33.0353 37.9978 33.0183 37.4177 32.7907 36.9066L30.1796 26.9523L33.6195 29.7109C34.021 30.0988 34.559 30.3131 35.1173 30.3075C35.6756 30.3019 36.2093 30.0768 36.6029 29.6809C36.9966 29.285 37.2186 28.7501 37.221 28.1918C37.2234 27.6334 37.0059 27.0966 36.6157 26.6973H36.6104Z" fill="#555555"/>
</svg>
