<svg width="30" height="30" viewBox="0 0 30 30" fill="none" xmlns="http://www.w3.org/2000/svg">
<path d="M11.7181 4.21875C11.7181 3.56978 11.9105 2.93539 12.271 2.39579C12.6316 1.85619 13.1441 1.43562 13.7436 1.18727C14.3432 0.938922 15.0029 0.873942 15.6394 1.00055C16.2759 1.12716 16.8606 1.43967 17.3195 1.89856C17.7784 2.35745 18.0909 2.94211 18.2175 3.57861C18.3441 4.21511 18.2791 4.87486 18.0308 5.47443C17.7824 6.074 17.3619 6.58646 16.8223 6.94701C16.2827 7.30756 15.6483 7.5 14.9993 7.5C14.1291 7.5 13.2945 7.1543 12.6791 6.53894C12.0638 5.92359 11.7181 5.08899 11.7181 4.21875ZM25.2438 16.4977L19.9411 10.4859C19.6332 10.1368 19.2545 9.85715 18.8302 9.66561C18.4059 9.47407 17.9457 9.37501 17.4802 9.375H12.5184C12.0529 9.37501 11.5927 9.47407 11.1684 9.66561C10.7441 9.85715 10.3654 10.1368 10.0575 10.4859L4.75477 16.4977C4.41045 16.85 4.21861 17.3236 4.22072 17.8163C4.22284 18.3089 4.41874 18.7809 4.76607 19.1302C5.11341 19.4796 5.58428 19.6782 6.07688 19.6831C6.56948 19.6881 7.04424 19.4989 7.39852 19.1566L10.429 16.7227L8.1204 25.4977C7.91955 25.9486 7.9046 26.4605 8.0788 26.9223C8.253 27.3842 8.60229 27.7587 9.05088 27.9646C9.49947 28.1706 10.0112 28.1913 10.475 28.0223C10.9388 27.8534 11.3172 27.5083 11.5282 27.0621L14.9993 21.0938L18.4657 27.0703C18.6767 27.5165 19.0552 27.8616 19.519 28.0305C19.9827 28.1995 20.4944 28.1788 20.943 27.9728C21.3916 27.7669 21.7409 27.3924 21.9151 26.9305C22.0893 26.4687 22.0744 25.9568 21.8735 25.5059L19.5696 16.7227L22.6048 19.1566C22.9591 19.4989 23.4338 19.6881 23.9264 19.6831C24.419 19.6782 24.8899 19.4796 25.2372 19.1302C25.5846 18.7809 25.7805 18.3089 25.7826 17.8163C25.7847 17.3236 25.5929 16.85 25.2485 16.4977H25.2438Z" fill="#7D7D7D"/>
</svg>
