<svg width="30" height="30" viewBox="0 0 30 30" fill="none" xmlns="http://www.w3.org/2000/svg">
<path d="M14.9993 7.96875C15.6483 7.96875 16.2827 7.77631 16.8223 7.41576C17.3619 7.05521 17.7824 6.54275 18.0308 5.94318C18.2791 5.34361 18.3441 4.68386 18.2175 4.04736C18.0909 3.41086 17.7784 2.8262 17.3195 2.36731C16.8606 1.90842 16.2759 1.59591 15.6394 1.4693C15.0029 1.34269 14.3432 1.40767 13.7436 1.65602C13.1441 1.90437 12.6316 2.32494 12.271 2.86454C11.9105 3.40414 11.7181 4.03853 11.7181 4.6875C11.7181 5.55774 12.0638 6.39234 12.6791 7.00769C13.2945 7.62305 14.1291 7.96875 14.9993 7.96875ZM14.9993 2.34375C15.4629 2.34375 15.916 2.48121 16.3014 2.73874C16.6869 2.99628 16.9873 3.36232 17.1646 3.79059C17.342 4.21885 17.3885 4.6901 17.298 5.14474C17.2076 5.59939 16.9844 6.017 16.6566 6.34478C16.3288 6.67256 15.9112 6.89578 15.4565 6.98622C15.0019 7.07665 14.5307 7.03024 14.1024 6.85284C13.6741 6.67545 13.3081 6.37505 13.0505 5.98962C12.793 5.60419 12.6556 5.15105 12.6556 4.6875C12.6556 4.0659 12.9025 3.46976 13.342 3.03022C13.7816 2.59068 14.3777 2.34375 14.9993 2.34375ZM25.2438 16.0289L19.9411 10.0172C19.6332 9.66804 19.2545 9.3884 18.8302 9.19686C18.4059 9.00532 17.9457 8.90626 17.4802 8.90625H12.5184C12.0529 8.90626 11.5927 9.00532 11.1684 9.19686C10.7441 9.3884 10.3654 9.66804 10.0575 10.0172L4.75477 16.0289C4.41045 16.3812 4.21861 16.8549 4.22072 17.3475C4.22284 17.8401 4.41874 18.3121 4.76607 18.6615C5.11341 19.0108 5.58428 19.2094 6.07688 19.2144C6.56948 19.2193 7.04424 19.0302 7.39852 18.6879L10.429 16.2539L8.1204 25.0289C7.91955 25.4798 7.9046 25.9917 8.0788 26.4536C8.253 26.9154 8.60229 27.2899 9.05088 27.4959C9.49947 27.7018 10.0112 27.7225 10.475 27.5536C10.9388 27.3846 11.3172 27.0396 11.5282 26.5934L14.9993 20.625L18.4657 26.6016C18.6767 27.0478 19.0552 27.3928 19.519 27.5618C19.9827 27.7307 20.4944 27.71 20.943 27.5041C21.3916 27.2981 21.7409 26.9236 21.9151 26.4618C22.0893 25.9999 22.0744 25.488 21.8735 25.0371L19.5696 16.2539L22.6048 18.6879C22.9591 19.0302 23.4338 19.2193 23.9264 19.2144C24.419 19.2094 24.8899 19.0108 25.2372 18.6615C25.5846 18.3121 25.7805 17.8401 25.7826 17.3475C25.7847 16.8549 25.5929 16.3812 25.2485 16.0289H25.2438ZM24.5688 18.0059C24.393 18.1815 24.1547 18.2802 23.9061 18.2802C23.6576 18.2802 23.4192 18.1815 23.2434 18.0059C23.2314 17.9936 23.2185 17.9822 23.2048 17.9719L19.0434 14.6344C18.9666 14.5724 18.8722 14.5363 18.7736 14.5311C18.675 14.526 18.5773 14.5521 18.4944 14.6057C18.4115 14.6594 18.3477 14.7378 18.3121 14.8299C18.2764 14.9219 18.2707 15.0229 18.2958 15.1184L20.9759 25.3055C20.9829 25.3324 20.9923 25.3587 21.004 25.384C21.0581 25.4958 21.0894 25.6173 21.0962 25.7414C21.1029 25.8654 21.0849 25.9896 21.0433 26.1066C21.0016 26.2237 20.9371 26.3313 20.8535 26.4232C20.7698 26.5151 20.6688 26.5894 20.5562 26.6419C20.4436 26.6944 20.3217 26.724 20.1975 26.729C20.0734 26.734 19.9495 26.7142 19.833 26.6709C19.7166 26.6275 19.6099 26.5615 19.5192 26.4765C19.4286 26.3916 19.3557 26.2895 19.3048 26.1762C19.2989 26.1633 19.2919 26.1516 19.2849 26.1387L15.4048 19.4531C15.3636 19.3821 15.3044 19.3231 15.2333 19.2821C15.1621 19.2412 15.0814 19.2196 14.9993 19.2196C14.9172 19.2196 14.8365 19.2412 14.7653 19.2821C14.6942 19.3231 14.635 19.3821 14.5938 19.4531L10.7126 26.1387C10.7056 26.1516 10.6985 26.1633 10.6927 26.1762C10.6418 26.2895 10.5689 26.3916 10.4782 26.4765C10.3875 26.5615 10.2808 26.6275 10.1644 26.6709C10.048 26.7142 9.92407 26.734 9.79992 26.729C9.67578 26.724 9.55386 26.6944 9.44125 26.6419C9.32865 26.5894 9.2276 26.5151 9.14398 26.4232C9.06036 26.3313 8.99585 26.2237 8.95418 26.1066C8.91251 25.9896 8.89453 25.8654 8.90127 25.7414C8.90801 25.6173 8.93934 25.4958 8.99345 25.384C9.00513 25.3587 9.01455 25.3324 9.02157 25.3055L11.7028 15.1172C11.7279 15.0217 11.7222 14.9207 11.6865 14.8287C11.6509 14.7366 11.5871 14.6582 11.5042 14.6046C11.4213 14.5509 11.3236 14.5248 11.225 14.5299C11.1264 14.5351 11.032 14.5712 10.9552 14.6332L6.79618 17.9719C6.78248 17.9822 6.76955 17.9936 6.75751 18.0059C6.58026 18.1743 6.34425 18.2667 6.09978 18.2636C5.85532 18.2605 5.62175 18.162 5.44887 17.9891C5.276 17.8162 5.17749 17.5827 5.17436 17.3382C5.17123 17.0937 5.26372 16.8577 5.43212 16.6805L5.45204 16.6594L10.7606 10.6371C10.9806 10.3877 11.2511 10.188 11.5542 10.0513C11.8572 9.91447 12.1859 9.84373 12.5184 9.84375H17.4802C17.8127 9.84373 18.1414 9.91447 18.4445 10.0513C18.7475 10.188 19.018 10.3877 19.238 10.6371L24.5489 16.6594L24.5688 16.6805C24.7445 16.8563 24.8432 17.0946 24.8432 17.3432C24.8432 17.5917 24.7445 17.8301 24.5688 18.0059Z" fill="#7D7D7D"/>
</svg>
