<svg width="14" height="13" viewBox="0 0 14 13" fill="none" xmlns="http://www.w3.org/2000/svg">
<path d="M9.5918 0.573242C11.1648 0.29289 12.2086 0.848412 12.8184 1.68066C13.4501 2.54325 13.6475 3.74919 13.3906 4.7793C12.9939 6.36132 11.8169 7.90924 10.5146 9.20605C9.2245 10.4907 7.86515 11.4771 7.17969 11.9443C7.06677 12.02 6.92847 12.0169 6.8252 11.9463H6.82617C6.14358 11.4794 4.78309 10.4924 3.49121 9.20605C2.18889 7.90927 1.0103 6.36149 0.611328 4.7793L0.568359 4.58398C0.378254 3.59968 0.586909 2.48937 1.17871 1.68066C1.7497 0.9004 2.70304 0.363221 4.11621 0.530273L4.4043 0.573242C4.9579 0.672832 5.49329 1.07082 5.91992 1.50391C6.12639 1.7135 6.29334 1.91663 6.4082 2.06738C6.46538 2.14242 6.50926 2.20359 6.53809 2.24512C6.55248 2.26586 6.56364 2.28198 6.57031 2.29199C6.5735 2.29677 6.57586 2.30077 6.57715 2.30273L6.57812 2.30371L6.99902 2.96094L7.41992 2.30371C7.42007 2.30349 7.42026 2.30274 7.4209 2.30176C7.42221 2.29974 7.42442 2.29601 7.42773 2.29102C7.43437 2.28102 7.44466 2.26485 7.45898 2.24414C7.48768 2.20265 7.53194 2.14134 7.58887 2.06641C7.70332 1.91578 7.86931 1.71223 8.0752 1.50293C8.44764 1.12436 8.90436 0.772792 9.38477 0.624023L9.5918 0.573242Z" fill="#D0D0D0" stroke="#ECECEC"/>
</svg>
