<svg xmlns="http://www.w3.org/2000/svg" width="28" height="28" viewBox="0 0 28 28" fill="none">
  <path d="M4.94634 14.2917C4.48505 13.8334 4.11957 13.288 3.8712 12.6871C3.62283 12.0862 3.49653 11.4419 3.49967 10.7917C3.49967 9.47663 4.02207 8.21546 4.95194 7.28559C5.8818 6.35572 7.14298 5.83333 8.45801 5.83333C10.3013 5.83333 11.9113 6.83666 12.763 8.33H14.0697C14.5026 7.57056 15.1291 6.93943 15.8853 6.50087C16.6416 6.0623 17.5005 5.83197 18.3747 5.83333C19.6897 5.83333 20.9509 6.35572 21.8807 7.28559C22.8106 8.21546 23.333 9.47663 23.333 10.7917C23.333 12.1567 22.7497 13.4167 21.8863 14.2917L13.4163 22.75L4.94634 14.2917ZM22.703 15.12C23.8113 14 24.4997 12.4833 24.4997 10.7917C24.4997 9.16721 23.8544 7.60929 22.7057 6.46063C21.557 5.31197 19.9991 4.66666 18.3747 4.66666C16.333 4.66666 14.5247 5.65833 13.4163 7.19833C12.8506 6.41258 12.1057 5.77303 11.2434 5.33275C10.3811 4.89246 9.42622 4.66412 8.45801 4.66666C6.83356 4.66666 5.27564 5.31197 4.12698 6.46063C2.97832 7.60929 2.33301 9.16721 2.33301 10.7917C2.33301 12.4833 3.02134 14 4.12967 15.12L13.4163 24.4067L22.703 15.12Z" fill="black"/>
</svg>