<svg xmlns="http://www.w3.org/2000/svg" width="37" height="37" viewBox="0 0 37 37" fill="none">
  <path d="M27.7499 21.1428C28.8013 21.1428 29.8097 21.5605 30.5531 22.3039C31.2966 23.0474 31.7142 24.0557 31.7142 25.1071V26.0519C31.7142 30.7787 26.151 34.3571 18.4999 34.3571C10.8489 34.3571 5.28564 30.965 5.28564 26.0519V25.1071C5.28564 24.0557 5.70331 23.0474 6.44676 22.3039C7.1902 21.5605 8.19854 21.1428 9.24993 21.1428H27.7499ZM27.7499 23.125H9.24993C8.7574 23.125 8.28251 23.3083 7.91779 23.6393C7.55307 23.9703 7.32465 24.4253 7.27704 24.9155L7.26779 25.1071V26.0519C7.26779 29.5854 11.7461 32.375 18.4999 32.375C25.0093 32.375 29.5405 29.5934 29.7268 26.2647L29.7321 26.0519V25.1071C29.7321 24.6146 29.5487 24.1397 29.2177 23.775C28.8867 23.4102 28.4318 23.1818 27.9415 23.1342L27.7499 23.125ZM18.4999 2.64282C19.5411 2.64282 20.5721 2.8479 21.5341 3.24635C22.496 3.6448 23.37 4.22881 24.1063 4.96505C24.8425 5.70128 25.4265 6.57532 25.825 7.53726C26.2234 8.4992 26.4285 9.5302 26.4285 10.5714C26.4285 11.6126 26.2234 12.6436 25.825 13.6055C25.4265 14.5675 24.8425 15.4415 24.1063 16.1777C23.37 16.914 22.496 17.498 21.5341 17.8964C20.5721 18.2949 19.5411 18.5 18.4999 18.5C16.3971 18.5 14.3805 17.6646 12.8936 16.1777C11.4067 14.6908 10.5714 12.6742 10.5714 10.5714C10.5714 8.46861 11.4067 6.45194 12.8936 4.96505C14.3805 3.47815 16.3971 2.64282 18.4999 2.64282ZM18.4999 4.62497C16.9228 4.62497 15.4103 5.25146 14.2952 6.36663C13.18 7.48181 12.5535 8.9943 12.5535 10.5714C12.5535 12.1485 13.18 13.661 14.2952 14.7762C15.4103 15.8913 16.9228 16.5178 18.4999 16.5178C20.077 16.5178 21.5895 15.8913 22.7047 14.7762C23.8199 13.661 24.4464 12.1485 24.4464 10.5714C24.4464 8.9943 23.8199 7.48181 22.7047 6.36663C21.5895 5.25146 20.077 4.62497 18.4999 4.62497Z" fill="white"/>
</svg>
