<svg xmlns="http://www.w3.org/2000/svg" width="28" height="28" viewBox="0 0 28 28" fill="none">
  <path d="M22.5164 6.66167C21.9809 6.12033 21.3431 5.69095 20.64 5.39851C19.937 5.10608 19.1828 4.95645 18.4214 4.95833C17.6599 4.95645 16.9057 5.10608 16.2027 5.39851C15.4997 5.69095 14.8618 6.12033 14.3264 6.66167L13.9997 7L13.673 6.67333C12.59 5.59044 11.1212 4.98208 9.5897 4.98208C8.05818 4.98208 6.58937 5.59044 5.50637 6.67333C4.43754 7.76375 3.83887 9.22978 3.83887 10.7567C3.83887 12.2836 4.43754 13.7496 5.50637 14.84L13.4047 22.7617C13.5688 22.9255 13.7912 23.0176 14.023 23.0176C14.2549 23.0176 14.4773 22.9255 14.6414 22.7617L22.5397 14.84C23.6089 13.746 24.2056 12.2758 24.2013 10.7461C24.1969 9.21634 23.5918 7.74954 22.5164 6.66167Z" fill="#E50000"/>
</svg>