<svg xmlns="http://www.w3.org/2000/svg" width="36" height="37" viewBox="0 0 36 37" fill="none">
  <path d="M29.2274 30.7309L19.8344 21.3379C19.0844 21.9769 18.2219 22.4714 17.2469 22.8214C16.2719 23.1714 15.2919 23.3464 14.3069 23.3464C11.9049 23.3464 9.87191 22.5149 8.20791 20.8519C6.54391 19.1889 5.71191 17.1564 5.71191 14.7544C5.71191 12.3524 6.54291 10.3189 8.20491 8.65395C9.86691 6.98895 11.8989 6.15545 14.3009 6.15345C16.7029 6.15145 18.7369 6.98345 20.4029 8.64945C22.0689 10.3154 22.9019 12.3489 22.9019 14.7499C22.9019 15.7919 22.7174 16.8004 22.3484 17.7754C21.9794 18.7504 21.4944 19.5844 20.8934 20.2774L30.2864 29.6689L29.2274 30.7309ZM14.3084 21.8449C16.2984 21.8449 17.9784 21.1599 19.3484 19.7899C20.7184 18.4199 21.4034 16.7394 21.4034 14.7484C21.4034 12.7574 20.7184 11.0774 19.3484 9.70845C17.9784 8.33945 16.2984 7.65445 14.3084 7.65345C12.3184 7.65245 10.6379 8.33745 9.26691 9.70845C7.89591 11.0794 7.21091 12.7594 7.21191 14.7484C7.21291 16.7374 7.89791 18.4174 9.26691 19.7884C10.6359 21.1594 12.3159 21.8444 14.3069 21.8434" fill="black"/>
</svg>