<svg width="24" height="24" viewBox="0 0 24 24" fill="none" xmlns="http://www.w3.org/2000/svg">
<path d="M12.2223 11.075C12.1396 11.17 12.0959 11.2928 12.0999 11.4187C12.1038 11.5446 12.1551 11.6643 12.2436 11.754C12.332 11.8437 12.451 11.8967 12.5768 11.9025C12.7027 11.9082 12.826 11.8662 12.9223 11.785L19.9223 4.78495V8.36495C19.9248 8.49676 19.9783 8.62245 20.0715 8.71567C20.1648 8.80889 20.2905 8.86239 20.4223 8.86495C20.5549 8.86495 20.682 8.81227 20.7758 8.7185C20.8696 8.62474 20.9223 8.49756 20.9223 8.36495V3.57495C20.9223 3.44234 20.8696 3.31517 20.7758 3.2214C20.682 3.12763 20.5549 3.07495 20.4223 3.07495H15.6323C15.4997 3.07495 15.3725 3.12763 15.2787 3.2214C15.1849 3.31517 15.1323 3.44234 15.1323 3.57495C15.1323 3.70756 15.1849 3.83474 15.2787 3.9285C15.3725 4.02227 15.4997 4.07495 15.6323 4.07495H19.2123L12.2223 11.075Z" fill="#7D7D7D"/>
<path d="M17.8762 20.926H6.12422C5.31555 20.9252 4.54023 20.6036 3.96842 20.0318C3.39661 19.46 3.07501 18.6846 3.07422 17.876V6.12397C3.07501 5.31531 3.39661 4.53999 3.96842 3.96818C4.54023 3.39636 5.31555 3.07477 6.12422 3.07397H12.1522C12.2848 3.07397 12.412 3.12665 12.5058 3.22042C12.5995 3.31419 12.6522 3.44137 12.6522 3.57397C12.6522 3.70658 12.5995 3.83376 12.5058 3.92753C12.412 4.0213 12.2848 4.07397 12.1522 4.07397H6.12422C5.58077 4.07477 5.0598 4.291 4.67553 4.67528C4.29125 5.05956 4.07501 5.58052 4.07422 6.12397V17.876C4.07501 18.4194 4.29125 18.9404 4.67553 19.3247C5.0598 19.7089 5.58077 19.9252 6.12422 19.926H17.8762C18.4197 19.9252 18.9406 19.7089 19.3249 19.3247C19.7092 18.9404 19.9254 18.4194 19.9262 17.876V11.849C19.9262 11.7164 19.9789 11.5892 20.0727 11.4954C20.1664 11.4017 20.2936 11.349 20.4262 11.349C20.5588 11.349 20.686 11.4017 20.7798 11.4954C20.8735 11.5892 20.9262 11.7164 20.9262 11.849V17.876C20.9254 18.6846 20.6038 19.46 20.032 20.0318C19.4602 20.6036 18.6849 20.9252 17.8762 20.926Z" fill="#7D7D7D"/>
</svg>
