<svg xmlns="http://www.w3.org/2000/svg" width="24" height="24" viewBox="0 0 24 24" fill="none">
  <path d="M11.9992 17C11.7439 16.9987 11.4921 16.9406 11.2621 16.8299C11.032 16.7192 10.8295 16.5587 10.6692 16.36L6.45921 11.26C6.21321 10.953 6.0584 10.583 6.01243 10.1923C5.96646 9.80153 6.03118 9.40574 6.19921 9.05C6.33549 8.74083 6.55789 8.47741 6.83983 8.29122C7.12178 8.10503 7.45136 8.00393 7.78921 8H16.2092C16.5471 8.00393 16.8767 8.10503 17.1586 8.29122C17.4405 8.47741 17.6629 8.74083 17.7992 9.05C17.9672 9.40574 18.032 9.80153 17.986 10.1923C17.94 10.583 17.7852 10.953 17.5392 11.26L13.3292 16.36C13.1689 16.5587 12.9664 16.7192 12.7364 16.8299C12.5063 16.9406 12.2545 16.9987 11.9992 17Z" fill="#1B75BB"/>
</svg>