<svg xmlns="http://www.w3.org/2000/svg" width="24" height="24" viewBox="0 0 24 24" fill="none">
  <path d="M11.9992 7C11.7439 7.00129 11.4921 7.05939 11.2621 7.17009C11.032 7.28078 10.8295 7.4413 10.6692 7.64L6.45921 12.74C6.21321 13.047 6.0584 13.417 6.01243 13.8077C5.96646 14.1985 6.03118 14.5943 6.19921 14.95C6.33549 15.2592 6.55789 15.5226 6.83983 15.7088C7.12178 15.895 7.45136 15.9961 7.78921 16H16.2092C16.5471 15.9961 16.8767 15.895 17.1586 15.7088C17.4405 15.5226 17.6629 15.2592 17.7992 14.95C17.9672 14.5943 18.032 14.1985 17.986 13.8077C17.94 13.417 17.7852 13.047 17.5392 12.74L13.3292 7.64C13.1689 7.4413 12.9664 7.28078 12.7364 7.17009C12.5063 7.05939 12.2545 7.00129 11.9992 7Z" fill="#1B75BB"/>
</svg>